<svg width="25" height="27" viewBox="0 0 25 27" fill="none" xmlns="http://www.w3.org/2000/svg">
  <path fill-rule="evenodd" clip-rule="evenodd" d="M15.957 2.7H21.6C23.085 2.7 24.3 3.915 24.3 5.4V24.3C24.3 25.785 23.085 27 21.6 27H2.7C1.215 27 0 25.785 0 24.3V5.4C0 3.915 1.215 2.7 2.7 2.7H8.343C8.91 1.134 10.395 0 12.15 0C13.905 0 15.39 1.134 15.957 2.7ZM13.5 4.05001C13.5 3.30751 12.8925 2.70001 12.15 2.70001C11.4075 2.70001 10.8 3.30751 10.8 4.05001C10.8 4.79251 11.4075 5.40001 12.15 5.40001C12.8925 5.40001 13.5 4.79251 13.5 4.05001ZM12.15 8.10001C14.391 8.10001 16.2 9.90901 16.2 12.15C16.2 14.391 14.391 16.2 12.15 16.2C9.90898 16.2 8.09998 14.391 8.09998 12.15C8.09998 9.90901 9.90898 8.10001 12.15 8.10001ZM4.04999 22.41V24.3H20.25V22.41C20.25 19.71 14.85 18.225 12.15 18.225C9.44999 18.225 4.04999 19.71 4.04999 22.41Z" fill="#333"/>
</svg>
