<svg width="18" height="18" viewBox="0 0 18 18" fill="none" xmlns="http://www.w3.org/2000/svg">
<path fill-rule="evenodd" clip-rule="evenodd" d="M9 0C4.032 0 0 4.032 0 9C0 13.968 4.032 18 9 18C13.968 18 18 13.968 18 9C18 4.032 13.968 0 9 0ZM8.1 15.3V13.5H9.9V15.3H8.1ZM10.953 9.15363L11.763 8.32563C12.681 7.40763 12.996 5.83263 11.934 4.36563C11.124 3.24063 9.819 2.52963 8.451 2.74563C7.056 2.96163 5.931 3.96963 5.544 5.29263C5.4 5.79663 5.76 6.30063 6.282 6.30063H6.552C6.903 6.30063 7.182 6.04863 7.29 5.71563C7.587 4.86063 8.514 4.29363 9.51299 4.57263C10.143 4.75263 10.647 5.30163 10.764 5.94963C10.881 6.57963 10.683 7.17363 10.269 7.56963L9.153 8.70363C8.775 9.08163 8.47799 9.54963 8.298 10.0716C8.172 10.4406 8.1 10.8366 8.1 11.2506V11.7006H9.89999C9.89999 11.2866 9.94499 10.9626 10.017 10.6746C10.179 10.0266 10.503 9.61263 10.953 9.15363Z" fill="black" fill-opacity="0.54"/>
</svg>
