<svg width="24" height="24" viewBox="0 0 24 24" fill="none" xmlns="http://www.w3.org/2000/svg">
<path d="M22.6477 11.1454C22.6477 11.1455 22.6477 11.1455 22.6477 11.1455C22.6477 11.1455 22.6477 11.1455 22.6478 11.1455L22.6478 11.1455L22.6478 11.1455L22.6478 11.1455L22.6478 11.1456C22.6478 11.1456 22.6478 11.1456 22.6478 11.1456C22.6478 11.1456 22.6479 11.1456 22.6479 11.1456C23.1176 11.6167 23.1173 12.3844 22.6473 12.8551C22.417 13.0853 22.1163 13.2097 21.7916 13.2097H21.4298H20.4298V14.2097V21.4144C20.4298 22.2876 19.7176 23 18.8435 23H15.3097V17.6484C15.3097 16.4455 14.3327 15.4687 13.1298 15.4687H10.8705C9.66763 15.4687 8.69059 16.4455 8.69059 17.6484V23H5.1568C4.28273 23 3.57054 22.2876 3.57054 21.4144V14.2097V13.2097H2.57054H2.19463L2.18221 13.2085L2.15505 13.2073C1.85008 13.1943 1.56852 13.0706 1.35314 12.8551L1.35297 12.8549C0.883227 12.3852 0.882187 11.6185 1.35079 11.1472L1.35849 11.1395L1.36166 11.1362L11.1446 1.35443L11.1446 1.35442C11.3746 1.12443 11.6752 1 12.0001 1C12.325 1 12.6255 1.12448 12.8553 1.35445L12.8555 1.35462L22.6477 11.1454ZM22.6477 11.1454L22.6477 11.1454L22.6477 11.1454C22.6477 11.1454 22.6477 11.1454 22.6477 11.1454ZM22.6476 11.1453C22.6476 11.1454 22.6476 11.1454 22.6476 11.1454C22.6476 11.1454 22.6476 11.1454 22.6476 11.1454L22.6476 11.1453ZM22.6476 11.1453L22.6476 11.1453L22.6476 11.1453M22.6476 11.1453C22.6476 11.1453 22.6476 11.1453 22.6476 11.1453M22.6476 11.1453C22.6476 11.1453 22.6476 11.1453 22.6476 11.1453" stroke="#454F63" stroke-width="2"/>
</svg>
