<svg width="15" height="18" viewBox="0 0 15 18" fill="none" xmlns="http://www.w3.org/2000/svg">
<path d="M6.53362 2.49216C5.9271 1.62318 5.93441 0.887894 6.54824 0.338284C7.06706 -0.129627 7.86357 -0.107346 8.37509 0.37542C8.94508 0.92503 8.94508 1.67517 8.34587 2.49216C8.49201 2.53673 8.63086 2.57386 8.76239 2.611C10.845 3.22002 12.1457 4.98769 12.2919 7.35696C12.3796 8.82753 12.4965 10.2907 12.6061 11.7613C12.6719 12.6154 13.008 12.957 13.863 13.0387C14.4476 13.0982 14.8787 13.5883 14.8714 14.1974C14.8641 14.799 14.4257 15.2892 13.8411 15.3337C13.7899 15.3412 13.7461 15.3337 13.6949 15.3337C9.52967 15.3337 5.37174 15.3337 1.2065 15.3337C0.256534 15.3337 -0.291524 14.4053 0.161537 13.6032C0.358838 13.2541 0.651136 13.0684 1.04574 13.0313C1.86417 12.9645 2.21493 12.5708 2.28069 11.7241C2.41223 9.96389 2.45607 8.18137 2.72645 6.44341C3.04797 4.37866 4.34139 3.10862 6.32171 2.55158C6.38747 2.53673 6.46055 2.51444 6.53362 2.49216Z" fill="#767676"/>
<path d="M5.52507 15.9697C6.81118 15.9697 8.06806 15.9697 9.33224 15.9697C9.45647 16.9575 8.60881 17.9379 7.58577 17.9973C6.42388 18.0568 5.51776 17.1878 5.52507 15.9697Z" fill="#767676"/>
</svg>
